<mxfile host="app.diagrams.net" modified="2023-08-29T19:09:08.946Z" agent="Mozilla/5.0 (Windows NT 10.0; Win64; x64) AppleWebKit/537.36 (KHTML, like Gecko) Chrome/116.0.0.0 Safari/537.36" version="21.6.9" etag="-gTgzKiZ00LvA_-WezGV" type="github">
  <diagram name="Page-1" id="FXt4XDMNH01X28-xPdZG">
    <mxGraphModel>
      <root>
        <mxCell id="0" />
        <mxCell id="1" parent="0" />
      </root>
    </mxGraphModel>
  </diagram>
</mxfile>
